#!OML:ASF I:\Actors\actors\Patient Classification 2\Patient 1\Session 1\actor1.ASF
:FULLY-SPECIFIED
:DEGREES
237
root -1.13018 18.1466 4.69414 7.91548 0.485027 -1.85276
lowerback 23.8495 1.27442 0.0252999
upperback 8.49053 1.71249 1.21466
thorax -3.98254 0.818896 0.841772
lowerneck -21.9576 -1.69498 -0.559428
upperneck 1.73225 -2.21689 1.44651
head 3.96067 -1.00863 0.335909
rclavicle -9.83984e-015 4.57205e-015
rhumerus 17.8921 30.1016 -43.6833
rradius 67.6008
rwrist -1.73404
rhand -12.1616 -30.6435
rfingers 7.12502
rthumb 13.9013 -60.1589
lclavicle -9.83984e-015 4.57205e-015
lhumerus 28.4957 -34.749 49.1116
lradius 58.7422
lwrist 11.2786
lhand -15.138 -17.7102
lfingers 7.12502
lthumb 11.0316 11.9799
rfemur 9.26729 -5.42326 18.3461
rtibia -26.4663
rfoot 0.0717849 -23.254
rtoes -0.158126
lfemur 7.93588 -1.90174 -12.699
ltibia -27.6859
lfoot 12.4454 12.7065
ltoes -15.3272
238
root -1.13109 18.1495 4.66653 8.32041 0.225537 -1.74041
lowerback 23.8852 1.38692 -0.0446713
upperback 8.49677 1.83685 1.17685
thorax -3.99621 0.87845 0.807359
lowerneck -22.2725 -1.70467 -0.545385
upperneck 1.00111 -2.21884 1.4019
head 3.77513 -1.01483 0.321003
rclavicle 1.5704e-014 1.59028e-015
rhumerus 20.2569 27.7757 -45.3769
rradius 63.3244
rwrist 0.23399
rhand -15.1259 -30.6969
rfingers 7.12502
rthumb 11.0433 -60.3864
lclavicle 1.5704e-014 1.59028e-015
lhumerus 29.476 -31.8511 52.6483
lradius 55.0628
lwrist 9.25959
lhand -15.1809 -18.7271
lfingers 7.12502
lthumb 10.9903 10.9652
rfemur 8.74633 -5.25579 18.2401
rtibia -26.6334
rfoot 0.367522 -23.3609
rtoes -0.239983
lfemur 7.40748 -1.8004 -12.8199
ltibia -27.6243
lfoot 12.4988 12.9164
ltoes -15.0188
239
root -1.13494 18.1539 4.65951 8.34545 0.586085 -1.65029
lowerback 24.0699 1.23428 0.0709976
upperback 8.57718 1.67205 1.22728
thorax -3.99514 0.799277 0.83746
lowerneck -22.6687 -1.68513 -0.526234
upperneck 0.349029 -2.18214 1.32177
head 3.62475 -1.00314 0.296922
rclavicle -7.35503e-015 -2.5842e-015
rhumerus 22.4232 25.296 -47.5061
rradius 59.3076
rwrist 3.06953
rhand -15.4604 -29.9927
rfingers 7.12502
rthumb 10.7206 -59.6991
lclavicle -7.35503e-015 -2.5842e-015
lhumerus 30.3034 -28.9342 56.1903
lradius 51.7107
lwrist 6.89045
lhand -15.0604 -19.8795
lfingers 7.12502
lthumb 11.1065 9.80663
rfemur 8.78876 -5.38038 18.1863
rtibia -26.694
rfoot 0.139081 -23.5923
rtoes 0.0565949
lfemur 7.20504 -2.03423 -12.8623
ltibia -27.518
lfoot 12.5887 12.7799
ltoes -15.202
240
root -1.13655 18.1571 4.65622 8.33221 0.773367 -1.61243
lowerback 24.1947 1.12978 0.240904
upperback 8.60002 1.57906 1.24726
thorax -4.0263 0.755984 0.785262
lowerneck -23.0145 -1.63972 -0.490752
upperneck -0.224274 -2.12047 1.28789
head 3.49192 -0.975646 0.287078
rclavicle 1.78906e-015 -1.11319e-014
rhumerus 24.2345 22.7856 -50.0863
rradius 55.6409
rwrist 5.30649
rhand -13.9647 -28.8127
rfingers 7.12502
rthumb 12.1631 -58.4391
lclavicle 1.78906e-015 -1.11319e-014
lhumerus 31.1419 -26.146 59.6453
lradius 48.5061
lwrist 3.88928
lhand -14.9267 -21.0429
lfingers 7.12502
lthumb 11.2354 8.63619
rfemur 8.81267 -5.39358 18.1577
rtibia -26.6678
rfoot -0.0295491 -23.7212
rtoes 0.528991
lfemur 7.085 -2.11378 -12.8875
ltibia -27.3821
lfoot 12.6525 12.6652
ltoes -15.4709
241
root -1.13714 18.1596 4.65929 8.11209 0.901292 -1.58028
lowerback 24.4259 1.05138 0.407451
upperback 8.61748 1.52045 1.27514
thorax -4.11665 0.728981 0.732885
lowerneck -23.4312 -1.60323 -0.511185
upperneck -0.600358 -2.06147 1.31393
head 3.4317 -0.944558 0.303361
rclavicle -1.15295e-014 -4.57205e-015
rhumerus 25.61 20.0507 -53.2513
rradius 52.3553
rwrist 7.04913
rhand -18.108 -28.2859
rfingers 7.12502
rthumb 8.16612 -58.1081
lclavicle -1.15295e-014 -4.57205e-015
lhumerus 32.0504 -23.591 62.8385
lradius 45.4873
lwrist 1.00778
lhand -14.5662 -22.1842
lfingers 7.12502
lthumb 11.5831 7.47566
rfemur 9.03424 -5.39966 18.1059
rtibia -26.5552
rfoot -0.213089 -23.7496
rtoes 0.932669
lfemur 7.21391 -2.21531 -12.9239
ltibia -27.1937
lfoot 12.5653 12.6076
ltoes -15.4308
242
root -1.13963 18.1621 4.66989 7.82337 0.983424 -1.55054
lowerback 24.5854 0.984543 0.46697
upperback 8.59252 1.45532 1.34082
thorax -4.22188 0.697003 0.785223
lowerneck -23.8713 -1.55429 -0.592234
upperneck -0.775834 -1.97212 1.35099
head 3.43748 -0.896727 0.334641
rclavicle -2.3059e-014 -1.11319e-014
rhumerus 26.4372 16.9303 -57.3146
rradius 49.391
rwrist 11.1656
rhand -19.5633 -26.1573
rfingers 7.12502
rthumb 6.76138 -56.0294
lclavicle -2.3059e-014 -1.11319e-014
lhumerus 32.8677 -21.3351 65.533
lradius 42.8457
lwrist -1.25467
lhand -14.1541 -23.1468
lfingers 7.12502
lthumb 11.9805 6.49035
rfemur 9.32761 -5.33758 18.0502
rtibia -26.3952
rfoot -0.431708 -23.792
rtoes 1.01887
lfemur 7.45398 -2.32298 -12.9573
ltibia -26.9903
lfoot 12.3669 12.5776
ltoes -15.1896
243
root -1.1426 18.1648 4.68471 7.60946 1.01142 -1.5204
lowerback 24.5907 0.940144 0.488053
upperback 8.45932 1.40984 1.39923
thorax -4.3709 0.6744 0.847547
lowerneck -24.2357 -1.52881 -0.616198
upperneck -0.814581 -1.92841 1.3426
head 3.47469 -0.874043 0.338269
rclavicle -7.7526e-015 1.39149e-015
rhumerus 28.3108 16.3947 -57.6921
rradius 46.9213
rwrist 11.0938
rhand -19.6927 -26.221
rfingers 7.12502
rthumb 6.6365 -56.097
lclavicle -7.7526e-015 1.39149e-015
lhumerus 33.5033 -19.4939 67.6913
lradius 40.652
lwrist -3.07176
lhand -14.0481 -23.685
lfingers 7.12502
lthumb 12.0827 5.94613
rfemur 9.52519 -5.26676 17.999
rtibia -26.1938
rfoot -0.620444 -23.7826
rtoes 1.0546
lfemur 7.62416 -2.40919 -12.9983
ltibia -26.756
lfoot 12.1266 12.582
ltoes -15.0572
